<?xml version="1.0" encoding="UTF-8"?> <svg xmlns="http://www.w3.org/2000/svg" width="45.327" height="45.661" viewBox="0 0 45.327 45.661"> <g id="Tilda_Icons_19ad_analytics" transform="translate(-0.001)"> <path id="Контур_13341" data-name="Контур 13341" d="M34.3,16.726A17.517,17.517,0,1,0,51.821,34.244a.783.783,0,0,0-.783-.783H35.086V17.509A.782.782,0,0,0,34.3,16.726Zm15.933,18.3A15.95,15.95,0,1,1,33.521,18.31V34.244a.783.783,0,0,0,.783.783Z" transform="translate(-11.455 -11.253)"></path> <path id="Контур_13342" data-name="Контур 13342" d="M44.309,44.25c-.429.423-.885.826-1.351,1.212A21.625,21.625,0,0,1,40.353,47.3a21.267,21.267,0,1,1,7.011-29.6l-1.82-.585a.783.783,0,1,0-.479,1.49L48.7,19.774a.783.783,0,0,0,.984-.5l1.211-3.7a.783.783,0,0,0-1.488-.488l-.628,1.918a22.818,22.818,0,1,0-7.62,31.639c.4-.238.786-.494,1.171-.757.017-.01.036-.014.052-.025.467-.32.915-.655,1.332-.992.075-.06.147-.125.221-.186.051-.042.1-.082.154-.124.014-.011.023-.025.037-.037.44-.371.873-.756,1.283-1.159a.783.783,0,1,0-1.1-1.115Z" transform="translate(-6.566 -6.238)"></path> <path id="Контур_13343" data-name="Контур 13343" d="M85.822,67.627a.783.783,0,0,0-1.052.345,21.514,21.514,0,0,1-1.952,3.158.783.783,0,1,0,1.255.937,23.178,23.178,0,0,0,2.095-3.388A.783.783,0,0,0,85.822,67.627Z" transform="translate(-42.951 -35.55)"></path> <path id="Контур_13344" data-name="Контур 13344" d="M90.483,55.954a.788.788,0,0,0-.91.631,21.6,21.6,0,0,1-.906,3.407.783.783,0,0,0,.475,1,.77.77,0,0,0,.262.045.783.783,0,0,0,.737-.52,23.243,23.243,0,0,0,.973-3.654A.783.783,0,0,0,90.483,55.954Z" transform="translate(-45.8 -30.004)"></path> </g> </svg> 