<?xml version="1.0" encoding="UTF-8"?> <svg xmlns="http://www.w3.org/2000/svg" width="56.891" height="36.542" viewBox="0 0 56.891 36.542"> <g id="Tilda_Icons_14ht_5stars" transform="translate(0)"> <path id="Контур_13333" data-name="Контур 13333" d="M50.189,39.284a1.36,1.36,0,0,0,.543-1.343l-.747-4.364,3.169-3.093a1.372,1.372,0,0,0-.761-2.341l-4.384-.637-1.96-3.975a1.37,1.37,0,0,0-1.231-.761h-.006a1.362,1.362,0,0,0-1.225.767l-1.957,3.97-4.382.637a1.372,1.372,0,0,0-.762,2.34l3.171,3.094-.749,4.382a1.369,1.369,0,0,0,1.969,1.458l4.034-2.042,3.827,2.012A1.365,1.365,0,0,0,50.189,39.284Zm-5.656-3.64-3.818,1.932.71-4.155a.856.856,0,0,0-.246-.758l-2.995-2.922,4.141-.6a.858.858,0,0,0,.646-.47l1.85-3.752,1.849,3.752a.858.858,0,0,0,.646.47l4.142.6-2.994,2.922a.858.858,0,0,0-.246.759l.706,4.123-3.6-1.9A.858.858,0,0,0,44.533,35.645Z" transform="translate(-16.375 -22.769)" fill="#231f20"></path> <path id="Контур_13334" data-name="Контур 13334" d="M87.574,29.142a1.365,1.365,0,0,0-1.109-.938l-4.385-.637L80.12,23.6a1.365,1.365,0,0,0-1.231-.764h0a1.362,1.362,0,0,0-1.227.767L75.7,27.568l-4.384.638a1.369,1.369,0,0,0-.76,2.338l3.17,3.1-.752,4.388a1.369,1.369,0,0,0,1.972,1.453l4.034-2.039,3.83,2.015A1.375,1.375,0,0,0,84.8,38l-.749-4.364,3.169-3.093A1.358,1.358,0,0,0,87.574,29.142Zm-5.041,3.582a.857.857,0,0,0-.246.759L83,37.611l-3.6-1.9a.857.857,0,0,0-.787-.006l-3.82,1.931.712-4.155a.856.856,0,0,0-.246-.759L72.256,29.8l4.139-.6a.858.858,0,0,0,.646-.47L78.89,24.98l1.851,3.751a.858.858,0,0,0,.646.469l4.141.6Z" transform="translate(-30.75 -22.795)" fill="#231f20"></path> <path id="Контур_13335" data-name="Контур 13335" d="M16.117,39.283a1.358,1.358,0,0,0,.543-1.342l-.747-4.364,3.169-3.093a1.373,1.373,0,0,0-.758-2.342l-4.385-.637L11.978,23.53a1.37,1.37,0,0,0-1.231-.761h0a1.365,1.365,0,0,0-1.227.765h0L7.559,27.506l-4.382.637a1.371,1.371,0,0,0-.76,2.339l3.171,3.094-.751,4.382a1.371,1.371,0,0,0,1.972,1.458l4.034-2.042,3.825,2.012A1.362,1.362,0,0,0,16.117,39.283Zm-5.654-3.639L6.644,37.577l.712-4.155a.857.857,0,0,0-.246-.759l-3-2.922,4.139-.6a.858.858,0,0,0,.646-.47l1.85-3.752L12.6,28.669a.858.858,0,0,0,.646.469l4.141.6-2.995,2.922a.858.858,0,0,0-.246.759l.706,4.123-3.6-1.895A.859.859,0,0,0,10.463,35.644Z" transform="translate(-2 -22.769)" fill="#231f20"></path> <path id="Контур_13336" data-name="Контур 13336" d="M35.36,62.243l-4.384-.635-1.961-3.977a1.369,1.369,0,0,0-1.23-.758h0a1.364,1.364,0,0,0-1.226.762,0,0,0,0,0,0,0L24.6,61.608l-4.388.636a1.373,1.373,0,0,0-.757,2.34l3.172,3.094-.751,4.384a1.373,1.373,0,0,0,1.349,1.607,1.38,1.38,0,0,0,.621-.149l4.034-2.043,3.827,2.012A1.373,1.373,0,0,0,33.7,72.043l-.749-4.366,3.167-3.09a1.373,1.373,0,0,0-.758-2.343Zm-3.93,4.521a.856.856,0,0,0-.246.759l.708,4.125-3.606-1.9a.855.855,0,0,0-.787-.006l-3.818,1.933.712-4.156a.857.857,0,0,0-.247-.759l-3-2.922,4.14-.6a.857.857,0,0,0,.646-.47l1.849-3.752,1.85,3.752a.857.857,0,0,0,.646.47l4.142.6Z" transform="translate(-9.189 -37.158)" fill="#231f20"></path> <path id="Контур_13337" data-name="Контур 13337" d="M69.432,62.3l-4.384-.637-1.961-3.978a1.369,1.369,0,0,0-1.229-.758h0a1.368,1.368,0,0,0-1.227.761v0l-1.958,3.971-4.383.637a1.373,1.373,0,0,0-.76,2.342l3.17,3.09-.749,4.383a1.374,1.374,0,0,0,1.35,1.608,1.394,1.394,0,0,0,.62-.147l4.034-2.043,3.826,2.01A1.372,1.372,0,0,0,67.769,72.1l-.747-4.366,3.171-3.091a1.373,1.373,0,0,0-.761-2.341ZM65.5,66.82a.857.857,0,0,0-.247.759l.706,4.124-3.6-1.893a.855.855,0,0,0-.787-.006l-3.818,1.934.71-4.159a.856.856,0,0,0-.247-.759l-3-2.92,4.142-.6a.858.858,0,0,0,.646-.47l1.85-3.752,1.85,3.752a.858.858,0,0,0,.646.47l4.144.6Z" transform="translate(-23.564 -37.182)" fill="#231f20"></path> </g> </svg> 