<?xml version="1.0" encoding="UTF-8"?> <svg xmlns="http://www.w3.org/2000/svg" width="45.326" height="45.327" viewBox="0 0 45.326 45.327"> <path id="Tilda_Icons_19ad_design" d="M51.174,14.327,43.149,6.3a.774.774,0,0,0-1.094,0L27.775,20.58,19.156,12.1c-.007-.007-.015-.011-.023-.018a.769.769,0,0,0-.091-.071c-.015-.01-.03-.022-.046-.031a.8.8,0,0,0-.121-.054c-.011,0-.02-.01-.031-.014L7.169,8.263a.774.774,0,0,0-.969.969L9.847,20.907a.767.767,0,0,0,.1.2c.013.02.028.036.043.054a.751.751,0,0,0,.056.071L18.655,29.7,6.3,42.054a.774.774,0,0,0,0,1.094l8.026,8.027a.775.775,0,0,0,1.095,0L27.9,38.694,38,48.508a.764.764,0,0,0,.457.2,6.314,6.314,0,0,0,8.849-9,.772.772,0,0,0-.2-.342L36.976,29.62l14.2-14.2A.775.775,0,0,0,51.174,14.327ZM17.656,13.162l-.578,1.966-2.7.793a.774.774,0,0,0-.524.524l-.792,2.7-1.966.578L8.117,10.182ZM14.874,49.533,7.942,42.6l2.916-2.916,3.466,3.466a.774.774,0,1,0,1.095-1.094l-3.466-3.466,2.84-2.84,3.466,3.466a.774.774,0,0,0,1.095-1.094l-3.466-3.466,3.874-3.874,7.031,6.833Zm31.245-2.081a4.779,4.779,0,0,1-6.344.359l6.7-6.7A4.779,4.779,0,0,1,46.119,47.452Zm-7.588-.586L20.246,29.094l-8.179-8.047,1.839-.541a.774.774,0,0,0,.524-.524l.793-2.7,2.7-.793a.774.774,0,0,0,.524-.524l.548-1.862L35.32,30.172l10.143,9.764ZM35.867,28.541l-6.988-6.876,3.972-3.972,3.466,3.466a.774.774,0,0,0,1.095-1.094L33.946,16.6l3.227-3.227,3.466,3.466a.774.774,0,1,0,1.095-1.094l-3.466-3.466L42.6,7.942l6.931,6.932Z" transform="translate(-6.075 -6.074)"></path> </svg> 