<?xml version="1.0" encoding="UTF-8"?> <svg xmlns="http://www.w3.org/2000/svg" width="52.894" height="39.941" viewBox="0 0 52.894 39.941"> <g id="Tilda_Icons_9ta_guide" transform="translate(0)"> <path id="Контур_13338" data-name="Контур 13338" d="M54.355,55.315a16.038,16.038,0,0,0-16.019,16.02.867.867,0,0,0,.867.867h30.3a.867.867,0,0,0,.867-.867A16.037,16.037,0,0,0,54.355,55.315ZM40.1,70.468a14.285,14.285,0,0,1,28.517,0Z" transform="translate(-17.48 -32.262)"></path> <path id="Контур_13339" data-name="Контур 13339" d="M58.8,39.6a9.306,9.306,0,1,0-9.306-9.306A9.317,9.317,0,0,0,58.8,39.6Zm0-16.879a7.572,7.572,0,1,1-7.572,7.572A7.581,7.581,0,0,1,58.8,22.721Z" transform="translate(-22.186 -17.778)"></path> <path id="Контур_13340" data-name="Контур 13340" d="M23.117,42.005a.867.867,0,0,0,.865.869h0a.867.867,0,0,0,.867-.865l.019-10.565a.867.867,0,0,0,.025-.209V17.27l0-.939c0-.006,0-.011,0-.017V16.3c0-.017-.005-.034-.006-.051a.93.93,0,0,0-.013-.107.861.861,0,0,0-1.132-.661l-20.9,7.256a.867.867,0,0,0-.014,1.633L23.136,31.83ZM5.7,23.581l17.458-6.06-.023,12.463Z" transform="translate(-2.258 -15.435)"></path> </g> </svg> 