<?xml version="1.0" encoding="UTF-8"?> <svg xmlns="http://www.w3.org/2000/svg" width="55.264" height="41.448" viewBox="0 0 55.264 41.448"> <g id="Tilda_Icons_14ht_couple" transform="translate(-0.001)"> <path id="Контур_13351" data-name="Контур 13351" d="M54.147,53.7A17.766,17.766,0,0,0,36.4,71.446a.867.867,0,0,0,.867.867H71.026a.867.867,0,0,0,.867-.867A17.767,17.767,0,0,0,54.147,53.7ZM38.157,70.58a16.013,16.013,0,0,1,31.979,0Z" transform="translate(-16.629 -30.866)"></path> <path id="Контур_13352" data-name="Контур 13352" d="M59.032,34.664A10.232,10.232,0,1,0,48.8,24.432,10.243,10.243,0,0,0,59.032,34.664Zm0-18.73a8.5,8.5,0,1,1-8.5,8.5A8.507,8.507,0,0,1,59.032,15.934Z" transform="translate(-21.861 -14.2)"></path> <path id="Контур_13353" data-name="Контур 13353" d="M15.611,62.934a11.585,11.585,0,0,1,5.916,1.613.867.867,0,0,0,.886-1.491A13.408,13.408,0,0,0,2.2,74.611a.867.867,0,0,0,.867.867H18.675a.867.867,0,0,0,0-1.734H3.966A11.692,11.692,0,0,1,15.611,62.934Z" transform="translate(-2.199 -34.031)"></path> <path id="Контур_13354" data-name="Контур 13354" d="M19.362,45.124A7.862,7.862,0,1,0,11.5,37.262,7.871,7.871,0,0,0,19.362,45.124Zm0-13.989a6.128,6.128,0,1,1-6.128,6.128A6.134,6.134,0,0,1,19.362,31.134Z" transform="translate(-6.123 -20.613)"></path> </g> </svg> 