<?xml version="1.0" encoding="UTF-8"?> <svg xmlns="http://www.w3.org/2000/svg" width="34.05" height="49.134" viewBox="0 0 34.05 49.134"> <g id="Tilda_Icons_44_travel_passport" transform="translate(0)"> <path id="Контур_13324" data-name="Контур 13324" d="M54.28,13.516H49.367V6.868a.867.867,0,0,0-1.1-.832L21.671,13.551h-.046l-.087.035-.069.04-.075.046-.064.052-.058.058-.052.064-.046.069-.04.069-.035.11v.162a.861.861,0,0,0,0,.092V54.287a.867.867,0,0,0,.809.85H54.28a.867.867,0,0,0,.867-.867V14.383A.867.867,0,0,0,54.28,13.516Zm-6.648,0H28.163l19.469-5.5ZM53.413,53.4H22.775V15.25H53.413Z" transform="translate(-21.098 -6.003)"></path> <path id="Контур_13325" data-name="Контур 13325" d="M44.171,33a8.671,8.671,0,1,0,8.671,8.671A8.671,8.671,0,0,0,44.171,33Zm0,15.608a6.937,6.937,0,1,1,6.937-6.937A6.937,6.937,0,0,1,44.171,48.608Z" transform="translate(-27.174 -17.394)"></path> <path id="Контур_13326" data-name="Контур 13326" d="M51.35,73H40.367a.867.867,0,0,0,0,1.734H51.35a.867.867,0,0,0,0-1.734Z" transform="translate(-28.862 -34.271)"></path> </g> </svg> 